PathFileType	4	(X/Y/Z)	./resultDataOpenSim/trcMotMarkerGrf/sub10/qtm-03-08.trc
DataRate	CameraRate	NumFrames	NumMarkers	Units	OrigDataRate	OrigDataStartFrame	OrigNumFrames
250.000000	250.000000	6	24	m	250.000000	373	496
Frame#	Time	L.Toe.Tip			R.Toe.Tip			L.Ankle.Lat			R.Ankle.Lat			L.Ankle.Med			R.Ankle.Med			L.Heel			R.Heel			L.Knee.Lat			R.Knee.Lat			L.Knee.Med			R.Knee.Med			L.Thigh.Upper			R.Thigh.Upper			L.ASIS			R.ASIS			V.Sacral			L.Acromium			R.Acromium			C7			L.Elbow			R.Elbow			L.Wrist.Lat			R.Wrist.Lat
		X1	Y1	Z1	X2	Y2	Z2	X3	Y3	Z3	X4	Y4	Z4	X5	Y5	Z5	X6	Y6	Z6	X7	Y7	Z7	X8	Y8	Z8	X9	Y9	Z9	X10	Y10	Z10	X11	Y11	Z11	X12	Y12	Z12	X13	Y13	Z13	X14	Y14	Z14	X15	Y15	Z15	X16	Y16	Z16	X17	Y17	Z17	X18	Y18	Z18	X19	Y19	Z19	X20	Y20	Z20	X21	Y21	Z21	X22	Y22	Z22	X23	Y23	Z23	X24	Y24	Z24

373	1.488	0.64802449	0.075752565	-0.2009773	0.90509556	0.038563424	0.03505161	0.58448702	0.19791353	-0.20750574	0.76186162	0.055319627	0.064400537	0.61444501	0.19634616	-0.12812924	0.78451545	0.080624835	-0.018459212	0.52439682	0.21676798	-0.15162172	0.71180557	0.031629582	0.018201647	0.85021467	0.46982039	-0.22247044	0.83193908	0.45173616	0.09529896	0.87641174	0.42863427	-0.10828833	0.83523777	0.45605579	-0.032256444	0.76970384	0.84496171	-0.22984555	0.81209475	0.86715091	0.15030013	0.83590607	0.95950936	-0.17050229	0.87193035	0.96228185	0.070995733	0.654391	0.96579876	-0.022394308	0.78264366	1.432083	-0.18767901	0.77347783	1.42346	0.13552771	0.6943501	1.4534628	-0.03150088	0.73733062	1.0992022	-0.28314176	0.69025789	1.0819655	0.20545334	0.89377235	0.90942741	-0.27531895	0.82577448	0.91395324	0.32156924
374	1.492	0.66402245	0.075124906	-0.20148664	0.90514975	0.03854682	0.035107081	0.59768841	0.19551253	-0.20785739	0.76181947	0.05543153	0.064362893	0.62820164	0.19441619	-0.12863575	0.78472118	0.080682817	-0.018535728	0.53687534	0.21292353	-0.15198696	0.71165715	0.031732205	0.018116719	0.85987378	0.47130968	-0.222553	0.83296718	0.45168293	0.095565796	0.88654167	0.4302656	-0.10853323	0.8373719	0.45580704	-0.03183084	0.77695792	0.84598499	-0.23038856	0.81591041	0.86723981	0.15018344	0.842108	0.96036233	-0.16989223	0.87632695	0.9624801	0.071564603	0.65921205	0.96622872	-0.023813349	0.78722891	1.4324805	-0.18763584	0.77817631	1.4239999	0.1355984	0.69906953	1.4538572	-0.031324665	0.73903056	1.1002477	-0.28331179	0.69782785	1.0815301	0.20684468	0.89216818	0.90782709	-0.27753853	0.83775623	0.91590403	0.32166115
375	1.496	0.68021539	0.074468021	-0.20200601	0.90520222	0.038530804	0.03515563	0.61099599	0.19295804	-0.20818623	0.76170629	0.055561474	0.064342759	0.64249068	0.1923453	-0.12927407	0.78489502	0.080733771	-0.018604375	0.5495649	0.20884906	-0.15241647	0.71146361	0.031834854	0.018065586	0.86945289	0.47270533	-0.22266197	0.83400328	0.45162442	0.095824434	0.89651953	0.43186744	-0.10876277	0.83974834	0.45546203	-0.031324119	0.78441959	0.84688173	-0.23081786	0.81970535	0.8672935	0.15006403	0.84830771	0.96111587	-0.16930676	0.88069777	0.96262524	0.072123219	0.66416149	0.96658307	-0.025168191	0.7918362	1.4327937	-0.18759872	0.78284801	1.4244764	0.13565779	0.70378567	1.4541765	-0.031192437	0.74073273	1.1012514	-0.2834758	0.70536081	1.0812846	0.20786948	0.89060608	0.90627964	-0.27967682	0.8497338	0.9178966	0.32170884
376	1.5	0.69667635	0.073826767	-0.20256105	0.90524908	0.038512665	0.035197764	0.62441589	0.19025693	-0.20850057	0.76156745	0.055713555	0.064333086	0.65680536	0.19015724	-0.12986705	0.78506047	0.080788459	-0.018673242	0.56249064	0.20455951	-0.15292997	0.71133129	0.031962419	0.018008085	0.87896156	0.47401395	-0.22280124	0.83511786	0.45156897	0.09606463	0.90631871	0.43345381	-0.10900448	0.84196875	0.45510832	-0.030905879	0.7920421	0.84766997	-0.23116331	0.82347195	0.86731486	0.14994349	0.85443769	0.96176343	-0.16875403	0.88505229	0.96271684	0.072677019	0.66920482	0.96687208	-0.026443843	0.79646742	1.4330261	-0.18757184	0.78748729	1.4248849	0.13570661	0.70850142	1.4544317	-0.031096522	0.74243951	1.102218	-0.28362617	0.71289518	1.0810752	0.20876231	0.88908204	0.90480068	-0.28176998	0.86168331	0.91992346	0.32170338
377	1.504	0.71338474	0.07321996	-0.20314402	0.90528854	0.038485332	0.035232315	0.63795792	0.18742166	-0.20880523	0.76148466	0.055878154	0.06431576	0.67081139	0.18785853	-0.13029656	0.78528653	0.080846029	-0.018773383	0.57556774	0.20007902	-0.15344281	0.71129581	0.032112219	0.017919067	0.88840917	0.47524471	-0.22297062	0.83635287	0.45152018	0.096280847	0.91609698	0.43501342	-0.1093105	0.84359256	0.45486776	-0.030773531	0.7998255	0.84838456	-0.23140486	0.82720704	0.86730739	0.14982557	0.86049747	0.96231335	-0.16822953	0.88939611	0.96275589	0.073232857	0.67427742	0.96710235	-0.027706644	0.8011133	1.4331856	-0.18755862	0.79210275	1.4252308	0.1357507	0.71322098	1.4546302	-0.031018399	0.74415527	1.1031193	-0.28371331	0.7206104	1.0807886	0.20973729	0.88755417	0.90338232	-0.28384545	0.87358849	0.92197701	0.32164367
378	1.508	0.73027364	0.072622828	-0.20375468	0.9053245	0.038442642	0.035256712	0.65162601	0.18446222	-0.20909085	0.76148965	0.056035458	0.064279655	0.68456287	0.18544931	-0.13058854	0.78561348	0.08089385	-0.018925731	0.58872802	0.19543344	-0.15388168	0.7113227	0.032260784	0.017802869	0.89779132	0.47640204	-0.22316148	0.83769853	0.45146915	0.096469149	0.92604995	0.43650741	-0.10969122	0.84465277	0.45476091	-0.030906048	0.80773086	0.8490428	-0.23154802	0.8309125	0.86727452	0.14971365	0.86650911	0.96277602	-0.16772286	0.89372603	0.96274337	0.073793172	0.67931629	0.96729467	-0.029069598	0.80576623	1.4332732	-0.18755765	0.79670347	1.4255193	0.13579494	0.71794526	1.4547732	-0.030945301	0.74588252	1.1039346	-0.28370498	0.7285763	1.0804174	0.21085686	0.88596934	0.9020084	-0.28590767	0.88544578	0.92405502	0.32153849
